<svg xmlns="http://www.w3.org/2000/svg" version="1.1" aria-hidden="true" role="img" xmlns:xlink="http://www.w3.org/1999/xlink" xmlns:svgjs="http://svgjs.com/svgjs" width="1440" height="780" preserveAspectRatio="none" viewBox="0 0 1440 780"><g mask="url(&quot;#SvgjsMask1255&quot;)" fill="none"><rect width="1440" height="780" x="0" y="0" fill="url(#SvgjsLinearGradient1256)"></rect><g mask="url(&quot;#SvgjsMask1257&quot;)"><path d="M-14.5 391.5L14.5 391.5" stroke="#3a7cc3" stroke-width="4.83"></path><path d="M7.25 391.5 a7.25 7.25 0 1 0 14.5 0 a7.25 7.25 0 1 0 -14.5 0z" fill="#3a7cc3"></path><path d="M710.5 362.5L739.5 333.5L768.5 333.5L797.5 333.5L826.5 333.5M797.5 362.5L826.5 391.5L855.5 391.5L884.5 391.5L913.5 391.5L942.5 391.5L971.5 391.5M884.5 333.5L913.5 362.5L942.5 362.5L971.5 362.5M159.5 362.5L188.5 391.5L217.5 391.5L246.5 391.5L275.5 391.5M768.5 362.5L797.5 391.5M72.5 362.5L101.5 391.5L130.5 391.5L159.5 391.5M449.5 391.5L478.5 362.5L507.5 362.5L536.5 362.5M333.5 391.5L362.5 420.5L391.5 420.5M1029.5 391.5L1058.5 362.5L1087.5 362.5M-14.5 362.5L14.5 362.5L43.5 362.5L72.5 362.5L101.5 362.5L130.5 362.5L159.5 362.5L188.5 362.5L217.5 362.5L246.5 362.5L275.5 362.5L304.5 362.5L333.5 391.5L362.5 391.5L391.5 391.5L420.5 391.5L449.5 391.5L478.5 391.5L507.5 391.5L536.5 391.5L565.5 391.5L594.5 391.5L623.5 391.5L652.5 362.5L681.5 362.5L710.5 362.5L739.5 362.5L768.5 362.5L797.5 362.5L826.5 362.5L855.5 362.5L884.5 333.5L913.5 333.5L942.5 333.5L971.5 333.5L1000.5 362.5L1029.5 391.5L1058.5 391.5" stroke="rgba(11, 205, 88, 1)" stroke-width="4.83"></path><path d="M1051.25 391.5 a7.25 7.25 0 1 0 14.5 0 a7.25 7.25 0 1 0 -14.5 0zM819.25 333.5 a7.25 7.25 0 1 0 14.5 0 a7.25 7.25 0 1 0 -14.5 0zM964.25 391.5 a7.25 7.25 0 1 0 14.5 0 a7.25 7.25 0 1 0 -14.5 0zM964.25 362.5 a7.25 7.25 0 1 0 14.5 0 a7.25 7.25 0 1 0 -14.5 0zM268.25 391.5 a7.25 7.25 0 1 0 14.5 0 a7.25 7.25 0 1 0 -14.5 0zM790.25 391.5 a7.25 7.25 0 1 0 14.5 0 a7.25 7.25 0 1 0 -14.5 0zM152.25 391.5 a7.25 7.25 0 1 0 14.5 0 a7.25 7.25 0 1 0 -14.5 0zM529.25 362.5 a7.25 7.25 0 1 0 14.5 0 a7.25 7.25 0 1 0 -14.5 0zM384.25 420.5 a7.25 7.25 0 1 0 14.5 0 a7.25 7.25 0 1 0 -14.5 0zM1080.25 362.5 a7.25 7.25 0 1 0 14.5 0 a7.25 7.25 0 1 0 -14.5 0z" fill="rgba(11, 205, 88, 1)"></path><path d="M43.5 420.5L72.5 391.5M275.5 420.5L304.5 420.5L333.5 420.5M-14.5 420.5L14.5 420.5L43.5 420.5L72.5 420.5L101.5 420.5L130.5 420.5L159.5 420.5L188.5 420.5L217.5 420.5L246.5 420.5L275.5 420.5L304.5 391.5" stroke="#dd1133" stroke-width="4.83"></path><path d="M297.25 391.5 a7.25 7.25 0 1 0 14.5 0 a7.25 7.25 0 1 0 -14.5 0zM65.25 391.5 a7.25 7.25 0 1 0 14.5 0 a7.25 7.25 0 1 0 -14.5 0zM326.25 420.5 a7.25 7.25 0 1 0 14.5 0 a7.25 7.25 0 1 0 -14.5 0z" fill="#dd1133"></path><path d="M362.5 333.5L391.5 362.5L420.5 362.5M333.5 333.5L362.5 362.5M-14.5 333.5L14.5 333.5L43.5 333.5L72.5 333.5L101.5 333.5L130.5 333.5L159.5 333.5L188.5 333.5L217.5 333.5L246.5 333.5L275.5 333.5L304.5 333.5L333.5 333.5L362.5 333.5L391.5 333.5" stroke="rgba(11, 205, 88, 1)" stroke-width="4.83"></path><path d="M384.25 333.5 a7.25 7.25 0 1 0 14.5 0 a7.25 7.25 0 1 0 -14.5 0zM413.25 362.5 a7.25 7.25 0 1 0 14.5 0 a7.25 7.25 0 1 0 -14.5 0zM355.25 362.5 a7.25 7.25 0 1 0 14.5 0 a7.25 7.25 0 1 0 -14.5 0z" fill="rgba(11, 205, 88, 1)"></path><path d="M594.5 420.5L623.5 449.5M536.5 420.5L565.5 449.5L594.5 449.5M739.5 420.5L768.5 420.5L797.5 420.5L826.5 420.5L855.5 420.5L884.5 420.5L913.5 420.5L942.5 420.5L971.5 420.5L1000.5 420.5L1029.5 420.5L1058.5 420.5L1087.5 449.5M1000.5 449.5L1029.5 478.5L1058.5 478.5L1087.5 478.5M797.5 449.5L826.5 478.5M971.5 449.5L1000.5 478.5M768.5 449.5L797.5 478.5L826.5 507.5L855.5 507.5L884.5 507.5L913.5 507.5M217.5 449.5L246.5 478.5L275.5 478.5L304.5 478.5M942.5 449.5L971.5 478.5L1000.5 507.5L1029.5 507.5L1058.5 507.5L1087.5 507.5M-14.5 449.5L14.5 449.5L43.5 449.5L72.5 449.5L101.5 449.5L130.5 449.5L159.5 449.5L188.5 449.5L217.5 449.5L246.5 449.5L275.5 449.5L304.5 449.5L333.5 449.5L362.5 449.5L391.5 449.5L420.5 420.5L449.5 420.5L478.5 420.5L507.5 420.5L536.5 420.5L565.5 420.5L594.5 420.5L623.5 420.5L652.5 420.5L681.5 420.5L710.5 420.5L739.5 420.5L768.5 449.5L797.5 449.5L826.5 449.5L855.5 449.5L884.5 449.5L913.5 449.5L942.5 449.5L971.5 449.5L1000.5 449.5L1029.5 449.5L1058.5 449.5" stroke="#3a7cc3" stroke-width="4.83"></path><path d="M1051.25 449.5 a7.25 7.25 0 1 0 14.5 0 a7.25 7.25 0 1 0 -14.5 0zM616.25 449.5 a7.25 7.25 0 1 0 14.5 0 a7.25 7.25 0 1 0 -14.5 0zM587.25 449.5 a7.25 7.25 0 1 0 14.5 0 a7.25 7.25 0 1 0 -14.5 0zM1080.25 449.5 a7.25 7.25 0 1 0 14.5 0 a7.25 7.25 0 1 0 -14.5 0zM1080.25 478.5 a7.25 7.25 0 1 0 14.5 0 a7.25 7.25 0 1 0 -14.5 0zM819.25 478.5 a7.25 7.25 0 1 0 14.5 0 a7.25 7.25 0 1 0 -14.5 0zM993.25 478.5 a7.25 7.25 0 1 0 14.5 0 a7.25 7.25 0 1 0 -14.5 0zM906.25 507.5 a7.25 7.25 0 1 0 14.5 0 a7.25 7.25 0 1 0 -14.5 0zM297.25 478.5 a7.25 7.25 0 1 0 14.5 0 a7.25 7.25 0 1 0 -14.5 0zM1080.25 507.5 a7.25 7.25 0 1 0 14.5 0 a7.25 7.25 0 1 0 -14.5 0z" fill="#3a7cc3"></path><path d="M565.5 304.5L594.5 333.5L623.5 333.5L652.5 333.5M420.5 304.5L449.5 333.5L478.5 333.5M507.5 304.5L536.5 333.5L565.5 333.5L594.5 362.5L623.5 362.5M449.5 304.5L478.5 275.5M536.5 304.5L565.5 275.5L594.5 275.5M-14.5 304.5L14.5 304.5L43.5 304.5L72.5 304.5L101.5 304.5L130.5 304.5L159.5 304.5L188.5 304.5L217.5 304.5L246.5 304.5L275.5 304.5L304.5 304.5L333.5 304.5L362.5 304.5L391.5 304.5L420.5 304.5L449.5 304.5L478.5 304.5L507.5 304.5L536.5 304.5L565.5 304.5L594.5 304.5" stroke="#dd1133" stroke-width="4.83"></path><path d="M587.25 304.5 a7.25 7.25 0 1 0 14.5 0 a7.25 7.25 0 1 0 -14.5 0zM645.25 333.5 a7.25 7.25 0 1 0 14.5 0 a7.25 7.25 0 1 0 -14.5 0zM471.25 333.5 a7.25 7.25 0 1 0 14.5 0 a7.25 7.25 0 1 0 -14.5 0zM616.25 362.5 a7.25 7.25 0 1 0 14.5 0 a7.25 7.25 0 1 0 -14.5 0zM471.25 275.5 a7.25 7.25 0 1 0 14.5 0 a7.25 7.25 0 1 0 -14.5 0zM587.25 275.5 a7.25 7.25 0 1 0 14.5 0 a7.25 7.25 0 1 0 -14.5 0z" fill="#dd1133"></path><path d="M72.5 478.5L101.5 507.5L130.5 507.5M14.5 478.5L43.5 507.5L72.5 507.5M-14.5 478.5L14.5 478.5L43.5 478.5L72.5 478.5L101.5 478.5L130.5 478.5L159.5 478.5L188.5 478.5" stroke="#dd1133" stroke-width="4.83"></path><path d="M181.25 478.5 a7.25 7.25 0 1 0 14.5 0 a7.25 7.25 0 1 0 -14.5 0zM123.25 507.5 a7.25 7.25 0 1 0 14.5 0 a7.25 7.25 0 1 0 -14.5 0zM65.25 507.5 a7.25 7.25 0 1 0 14.5 0 a7.25 7.25 0 1 0 -14.5 0z" fill="#dd1133"></path><path d="M-14.5 275.5L14.5 275.5L43.5 275.5L72.5 275.5L101.5 275.5L130.5 275.5L159.5 275.5L188.5 275.5L217.5 275.5L246.5 275.5L275.5 275.5L304.5 275.5L333.5 275.5L362.5 275.5L391.5 275.5" stroke="#3a7cc3" stroke-width="4.83"></path><path d="M384.25 275.5 a7.25 7.25 0 1 0 14.5 0 a7.25 7.25 0 1 0 -14.5 0z" fill="#3a7cc3"></path><path d="M188.5 507.5L217.5 536.5L246.5 536.5L275.5 536.5M391.5 536.5L420.5 507.5L449.5 507.5L478.5 507.5L507.5 507.5L536.5 507.5L565.5 507.5L594.5 507.5M623.5 536.5L652.5 507.5L681.5 507.5L710.5 507.5L739.5 507.5L768.5 507.5L797.5 507.5L826.5 536.5L855.5 536.5M275.5 507.5L304.5 507.5L333.5 507.5L362.5 478.5M130.5 536.5L159.5 536.5L188.5 536.5M362.5 536.5L391.5 507.5M-14.5 507.5L14.5 536.5L43.5 536.5L72.5 536.5L101.5 536.5L130.5 536.5L159.5 507.5L188.5 507.5L217.5 507.5L246.5 507.5L275.5 507.5L304.5 536.5L333.5 536.5L362.5 536.5L391.5 536.5L420.5 536.5L449.5 536.5L478.5 536.5L507.5 536.5L536.5 536.5L565.5 536.5L594.5 536.5L623.5 536.5L652.5 536.5L681.5 536.5L710.5 536.5L739.5 536.5" stroke="#dd1133" stroke-width="4.83"></path><path d="M732.25 536.5 a7.25 7.25 0 1 0 14.5 0 a7.25 7.25 0 1 0 -14.5 0zM268.25 536.5 a7.25 7.25 0 1 0 14.5 0 a7.25 7.25 0 1 0 -14.5 0zM587.25 507.5 a7.25 7.25 0 1 0 14.5 0 a7.25 7.25 0 1 0 -14.5 0zM848.25 536.5 a7.25 7.25 0 1 0 14.5 0 a7.25 7.25 0 1 0 -14.5 0zM355.25 478.5 a7.25 7.25 0 1 0 14.5 0 a7.25 7.25 0 1 0 -14.5 0zM181.25 536.5 a7.25 7.25 0 1 0 14.5 0 a7.25 7.25 0 1 0 -14.5 0zM384.25 507.5 a7.25 7.25 0 1 0 14.5 0 a7.25 7.25 0 1 0 -14.5 0z" fill="#dd1133"></path><path d="M478.5 246.5L507.5 217.5L536.5 217.5L565.5 217.5L594.5 217.5M420.5 246.5L449.5 275.5M333.5 246.5L362.5 217.5L391.5 217.5L420.5 217.5L449.5 217.5M304.5 246.5L333.5 217.5L362.5 188.5L391.5 188.5L420.5 188.5L449.5 188.5L478.5 188.5L507.5 188.5L536.5 188.5L565.5 188.5L594.5 188.5L623.5 188.5M246.5 246.5L275.5 217.5L304.5 217.5L333.5 188.5L362.5 159.5L391.5 159.5L420.5 159.5L449.5 159.5L478.5 159.5M72.5 246.5L101.5 217.5M-14.5 246.5L14.5 246.5L43.5 246.5L72.5 246.5L101.5 246.5L130.5 246.5L159.5 246.5L188.5 246.5L217.5 246.5L246.5 246.5L275.5 246.5L304.5 246.5L333.5 246.5L362.5 246.5L391.5 246.5L420.5 246.5L449.5 246.5L478.5 246.5L507.5 246.5L536.5 246.5L565.5 246.5L594.5 246.5L623.5 275.5L652.5 275.5L681.5 275.5L710.5 246.5" stroke="#3a7cc3" stroke-width="4.83"></path><path d="M703.25 246.5 a7.25 7.25 0 1 0 14.5 0 a7.25 7.25 0 1 0 -14.5 0zM587.25 217.5 a7.25 7.25 0 1 0 14.5 0 a7.25 7.25 0 1 0 -14.5 0zM442.25 275.5 a7.25 7.25 0 1 0 14.5 0 a7.25 7.25 0 1 0 -14.5 0zM442.25 217.5 a7.25 7.25 0 1 0 14.5 0 a7.25 7.25 0 1 0 -14.5 0zM616.25 188.5 a7.25 7.25 0 1 0 14.5 0 a7.25 7.25 0 1 0 -14.5 0zM471.25 159.5 a7.25 7.25 0 1 0 14.5 0 a7.25 7.25 0 1 0 -14.5 0zM94.25 217.5 a7.25 7.25 0 1 0 14.5 0 a7.25 7.25 0 1 0 -14.5 0z" fill="#3a7cc3"></path><path d="M826.5 565.5L855.5 594.5L884.5 594.5L913.5 594.5L942.5 594.5L971.5 594.5M333.5 565.5L362.5 594.5L391.5 594.5L420.5 594.5L449.5 594.5L478.5 594.5L507.5 594.5L536.5 594.5L565.5 594.5L594.5 594.5L623.5 594.5L652.5 594.5M942.5 565.5L971.5 536.5L1000.5 536.5L1029.5 536.5L1058.5 536.5L1087.5 565.5M217.5 565.5L246.5 594.5L275.5 594.5L304.5 594.5L333.5 623.5L362.5 623.5L391.5 623.5L420.5 623.5M681.5 565.5L710.5 594.5L739.5 594.5M43.5 565.5L72.5 594.5L101.5 594.5L130.5 594.5M797.5 565.5L826.5 594.5L855.5 623.5L884.5 623.5M884.5 565.5L913.5 536.5M-14.5 536.5L14.5 565.5L43.5 565.5L72.5 565.5L101.5 565.5L130.5 565.5L159.5 565.5L188.5 565.5L217.5 565.5L246.5 565.5L275.5 565.5L304.5 565.5L333.5 565.5L362.5 565.5L391.5 565.5L420.5 565.5L449.5 565.5L478.5 565.5L507.5 565.5L536.5 565.5L565.5 565.5L594.5 565.5L623.5 565.5L652.5 565.5L681.5 565.5L710.5 565.5L739.5 565.5L768.5 565.5L797.5 565.5L826.5 565.5L855.5 565.5L884.5 565.5L913.5 565.5L942.5 565.5L971.5 565.5" stroke="rgba(11, 205, 88, 1)" stroke-width="4.83"></path><path d="M964.25 565.5 a7.25 7.25 0 1 0 14.5 0 a7.25 7.25 0 1 0 -14.5 0zM964.25 594.5 a7.25 7.25 0 1 0 14.5 0 a7.25 7.25 0 1 0 -14.5 0zM645.25 594.5 a7.25 7.25 0 1 0 14.5 0 a7.25 7.25 0 1 0 -14.5 0zM1080.25 565.5 a7.25 7.25 0 1 0 14.5 0 a7.25 7.25 0 1 0 -14.5 0zM413.25 623.5 a7.25 7.25 0 1 0 14.5 0 a7.25 7.25 0 1 0 -14.5 0zM732.25 594.5 a7.25 7.25 0 1 0 14.5 0 a7.25 7.25 0 1 0 -14.5 0zM123.25 594.5 a7.25 7.25 0 1 0 14.5 0 a7.25 7.25 0 1 0 -14.5 0zM877.25 623.5 a7.25 7.25 0 1 0 14.5 0 a7.25 7.25 0 1 0 -14.5 0zM906.25 536.5 a7.25 7.25 0 1 0 14.5 0 a7.25 7.25 0 1 0 -14.5 0z" fill="rgba(11, 205, 88, 1)"></path><path d="M14.5 217.5L43.5 217.5L72.5 217.5M72.5 188.5L101.5 159.5L130.5 159.5M-14.5 217.5L14.5 217.5L43.5 188.5L72.5 188.5L101.5 188.5" stroke="rgba(11, 205, 88, 1)" stroke-width="4.83"></path><path d="M94.25 188.5 a7.25 7.25 0 1 0 14.5 0 a7.25 7.25 0 1 0 -14.5 0zM65.25 217.5 a7.25 7.25 0 1 0 14.5 0 a7.25 7.25 0 1 0 -14.5 0zM123.25 159.5 a7.25 7.25 0 1 0 14.5 0 a7.25 7.25 0 1 0 -14.5 0z" fill="rgba(11, 205, 88, 1)"></path></g></g><defs><mask id="SvgjsMask1255"><rect width="1440" height="780" fill="#ffffff"></rect></mask><linearGradient x1="50%" y1="0%" x2="50%" y2="100%" gradientUnits="userSpaceOnUse" id="SvgjsLinearGradient1256"><stop stop-color="#0e2a47" offset="0"></stop><stop stop-color="rgba(9, 112, 181, 1)" offset="1"></stop></linearGradient><mask id="SvgjsMask1257"><rect width="1440" height="780" fill="white"></rect><path d="M10.87 391.5 a3.63 3.63 0 1 0 7.26 0 a3.63 3.63 0 1 0 -7.26 0z" fill="black"></path><path d="M1054.87 391.5 a3.63 3.63 0 1 0 7.26 0 a3.63 3.63 0 1 0 -7.26 0zM822.87 333.5 a3.63 3.63 0 1 0 7.26 0 a3.63 3.63 0 1 0 -7.26 0zM967.87 391.5 a3.63 3.63 0 1 0 7.26 0 a3.63 3.63 0 1 0 -7.26 0zM967.87 362.5 a3.63 3.63 0 1 0 7.26 0 a3.63 3.63 0 1 0 -7.26 0zM271.87 391.5 a3.63 3.63 0 1 0 7.26 0 a3.63 3.63 0 1 0 -7.26 0zM793.87 391.5 a3.63 3.63 0 1 0 7.26 0 a3.63 3.63 0 1 0 -7.26 0zM155.87 391.5 a3.63 3.63 0 1 0 7.26 0 a3.63 3.63 0 1 0 -7.26 0zM532.87 362.5 a3.63 3.63 0 1 0 7.26 0 a3.63 3.63 0 1 0 -7.26 0zM387.87 420.5 a3.63 3.63 0 1 0 7.26 0 a3.63 3.63 0 1 0 -7.26 0zM1083.87 362.5 a3.63 3.63 0 1 0 7.26 0 a3.63 3.63 0 1 0 -7.26 0z" fill="black"></path><path d="M300.87 391.5 a3.63 3.63 0 1 0 7.26 0 a3.63 3.63 0 1 0 -7.26 0zM68.87 391.5 a3.63 3.63 0 1 0 7.26 0 a3.63 3.63 0 1 0 -7.26 0zM329.87 420.5 a3.63 3.63 0 1 0 7.26 0 a3.63 3.63 0 1 0 -7.26 0z" fill="black"></path><path d="M387.87 333.5 a3.63 3.63 0 1 0 7.26 0 a3.63 3.63 0 1 0 -7.26 0zM416.87 362.5 a3.63 3.63 0 1 0 7.26 0 a3.63 3.63 0 1 0 -7.26 0zM358.87 362.5 a3.63 3.63 0 1 0 7.26 0 a3.63 3.63 0 1 0 -7.26 0z" fill="black"></path><path d="M1054.87 449.5 a3.63 3.63 0 1 0 7.26 0 a3.63 3.63 0 1 0 -7.26 0zM619.87 449.5 a3.63 3.63 0 1 0 7.26 0 a3.63 3.63 0 1 0 -7.26 0zM590.87 449.5 a3.63 3.63 0 1 0 7.26 0 a3.63 3.63 0 1 0 -7.26 0zM1083.87 449.5 a3.63 3.63 0 1 0 7.26 0 a3.63 3.63 0 1 0 -7.26 0zM1083.87 478.5 a3.63 3.63 0 1 0 7.26 0 a3.63 3.63 0 1 0 -7.26 0zM822.87 478.5 a3.63 3.63 0 1 0 7.26 0 a3.63 3.63 0 1 0 -7.26 0zM996.87 478.5 a3.63 3.63 0 1 0 7.26 0 a3.63 3.63 0 1 0 -7.26 0zM909.87 507.5 a3.63 3.63 0 1 0 7.26 0 a3.63 3.63 0 1 0 -7.26 0zM300.87 478.5 a3.63 3.63 0 1 0 7.26 0 a3.63 3.63 0 1 0 -7.26 0zM1083.87 507.5 a3.63 3.63 0 1 0 7.26 0 a3.63 3.63 0 1 0 -7.26 0z" fill="black"></path><path d="M590.87 304.5 a3.63 3.63 0 1 0 7.26 0 a3.63 3.63 0 1 0 -7.26 0zM648.87 333.5 a3.63 3.63 0 1 0 7.26 0 a3.63 3.63 0 1 0 -7.26 0zM474.87 333.5 a3.63 3.63 0 1 0 7.26 0 a3.63 3.63 0 1 0 -7.26 0zM619.87 362.5 a3.63 3.63 0 1 0 7.26 0 a3.63 3.63 0 1 0 -7.26 0zM474.87 275.5 a3.63 3.63 0 1 0 7.26 0 a3.63 3.63 0 1 0 -7.26 0zM590.87 275.5 a3.63 3.63 0 1 0 7.26 0 a3.63 3.63 0 1 0 -7.26 0z" fill="black"></path><path d="M184.87 478.5 a3.63 3.63 0 1 0 7.26 0 a3.63 3.63 0 1 0 -7.26 0zM126.87 507.5 a3.63 3.63 0 1 0 7.26 0 a3.63 3.63 0 1 0 -7.26 0zM68.87 507.5 a3.63 3.63 0 1 0 7.26 0 a3.63 3.63 0 1 0 -7.26 0z" fill="black"></path><path d="M387.87 275.5 a3.63 3.63 0 1 0 7.26 0 a3.63 3.63 0 1 0 -7.26 0z" fill="black"></path><path d="M735.87 536.5 a3.63 3.63 0 1 0 7.26 0 a3.63 3.63 0 1 0 -7.26 0zM271.87 536.5 a3.63 3.63 0 1 0 7.26 0 a3.63 3.63 0 1 0 -7.26 0zM590.87 507.5 a3.63 3.63 0 1 0 7.26 0 a3.63 3.63 0 1 0 -7.26 0zM851.87 536.5 a3.63 3.63 0 1 0 7.26 0 a3.63 3.63 0 1 0 -7.26 0zM358.87 478.5 a3.63 3.63 0 1 0 7.26 0 a3.63 3.63 0 1 0 -7.26 0zM184.87 536.5 a3.63 3.63 0 1 0 7.26 0 a3.63 3.63 0 1 0 -7.26 0zM387.87 507.5 a3.63 3.63 0 1 0 7.26 0 a3.63 3.63 0 1 0 -7.26 0z" fill="black"></path><path d="M706.87 246.5 a3.63 3.63 0 1 0 7.26 0 a3.63 3.63 0 1 0 -7.26 0zM590.87 217.5 a3.63 3.63 0 1 0 7.26 0 a3.63 3.63 0 1 0 -7.26 0zM445.87 275.5 a3.63 3.63 0 1 0 7.26 0 a3.63 3.63 0 1 0 -7.26 0zM445.87 217.5 a3.63 3.63 0 1 0 7.26 0 a3.63 3.63 0 1 0 -7.26 0zM619.87 188.5 a3.63 3.63 0 1 0 7.26 0 a3.63 3.63 0 1 0 -7.26 0zM474.87 159.5 a3.63 3.63 0 1 0 7.26 0 a3.63 3.63 0 1 0 -7.26 0zM97.87 217.5 a3.63 3.63 0 1 0 7.26 0 a3.63 3.63 0 1 0 -7.26 0z" fill="black"></path><path d="M967.87 565.5 a3.63 3.63 0 1 0 7.26 0 a3.63 3.63 0 1 0 -7.26 0zM967.87 594.5 a3.63 3.63 0 1 0 7.26 0 a3.63 3.63 0 1 0 -7.26 0zM648.87 594.5 a3.63 3.63 0 1 0 7.26 0 a3.63 3.63 0 1 0 -7.26 0zM1083.87 565.5 a3.63 3.63 0 1 0 7.26 0 a3.63 3.63 0 1 0 -7.26 0zM416.87 623.5 a3.63 3.63 0 1 0 7.26 0 a3.63 3.63 0 1 0 -7.26 0zM735.87 594.5 a3.63 3.63 0 1 0 7.26 0 a3.63 3.63 0 1 0 -7.26 0zM126.87 594.5 a3.63 3.63 0 1 0 7.26 0 a3.63 3.63 0 1 0 -7.26 0zM880.87 623.5 a3.63 3.63 0 1 0 7.26 0 a3.63 3.63 0 1 0 -7.26 0zM909.87 536.5 a3.63 3.63 0 1 0 7.26 0 a3.63 3.63 0 1 0 -7.26 0z" fill="black"></path><path d="M97.87 188.5 a3.63 3.63 0 1 0 7.26 0 a3.63 3.63 0 1 0 -7.26 0zM68.87 217.5 a3.63 3.63 0 1 0 7.26 0 a3.63 3.63 0 1 0 -7.26 0zM126.87 159.5 a3.63 3.63 0 1 0 7.26 0 a3.63 3.63 0 1 0 -7.26 0z" fill="black"></path></mask></defs></svg>