<?xml version="1.0" standalone="no"?>
<!DOCTYPE svg PUBLIC "-//W3C//DTD SVG 20010904//EN"
 "http://www.w3.org/TR/2001/REC-SVG-20010904/DTD/svg10.dtd">
<svg version="1.0" xmlns="http://www.w3.org/2000/svg"
 width="300.000000pt" height="300.000000pt" viewBox="0 0 300.000000 300.000000"
 preserveAspectRatio="xMidYMid meet">
<metadata>
Created by potrace 1.10, written by Peter Selinger 2001-2011
</metadata>
<g transform="translate(0.000000,300.000000) scale(0.100000,-0.100000)"
fill="#000000" stroke="none">
<path d="M1339 2903 c-271 -281 -407 -617 -370 -914 7 -55 16 -112 21 -125 9
-21 6 -24 -32 -34 -22 -7 -66 -23 -97 -38 -53 -25 -64 -26 -217 -27 l-160 0
-86 42 c-227 113 -319 354 -227 598 27 71 96 147 166 181 79 39 203 45 285 15
125 -48 197 -192 156 -312 -17 -51 -65 -117 -98 -134 -40 -21 -113 -19 -158 4
-70 36 -120 109 -106 155 15 49 96 106 151 106 50 0 103 -56 103 -110 0 -31
17 -24 24 11 12 62 7 97 -21 130 -36 42 -79 59 -151 59 -223 0 -304 -272 -127
-428 91 -80 243 -104 341 -54 54 28 120 102 152 170 23 50 26 70 27 167 0 101
-2 114 -27 161 -35 66 -131 153 -215 194 -160 79 -360 36 -489 -103 -95 -103
-138 -215 -137 -362 2 -192 100 -377 252 -474 82 -52 163 -74 283 -75 60 -1
108 -4 108 -7 0 -3 -20 -20 -45 -38 -97 -70 -222 -235 -301 -398 -43 -90 -124
-312 -124 -344 0 -16 89 -41 250 -70 99 -18 370 -15 460 5 184 41 326 108 431
204 l54 50 56 -47 c31 -25 76 -60 101 -77 54 -38 128 -138 158 -213 28 -72 39
-171 29 -251 -37 -266 -329 -457 -564 -369 -109 41 -211 170 -223 281 -7 72
23 154 78 209 54 54 112 73 200 67 49 -4 65 -9 91 -34 40 -38 59 -85 59 -146
0 -105 -58 -164 -137 -140 -54 17 -102 48 -114 76 -16 34 -3 88 27 121 33 36
24 42 -26 20 -57 -26 -84 -67 -83 -125 2 -115 105 -214 223 -214 138 -1 265
151 246 293 -16 119 -71 208 -157 256 -49 27 -62 30 -144 29 -107 -1 -179 -24
-256 -86 -102 -80 -135 -168 -127 -340 4 -94 8 -110 38 -166 41 -78 124 -155
208 -195 120 -56 301 -46 432 24 122 65 228 191 278 332 29 82 35 208 13 287
-15 51 -65 157 -89 183 -23 26 -13 27 50 6 194 -65 488 -65 742 1 44 11 81 21
83 23 5 6 -45 168 -73 237 -106 262 -247 451 -425 569 -75 51 -226 121 -259
121 -8 0 -9 11 -4 33 4 17 12 70 19 117 20 151 132 335 253 417 233 158 548
80 679 -169 25 -47 28 -63 28 -148 0 -84 -3 -102 -28 -153 -42 -85 -114 -153
-184 -173 -140 -41 -273 24 -318 155 -29 85 -12 142 57 193 136 102 267 31
228 -125 -7 -25 -20 -53 -30 -62 -27 -25 -83 -30 -121 -11 -48 24 -49 9 -2
-35 37 -34 48 -39 90 -39 87 0 162 72 183 175 19 91 -14 166 -99 223 -124 83
-268 59 -380 -63 -89 -99 -103 -201 -42 -331 84 -179 275 -264 458 -204 168
56 239 123 294 276 73 206 -41 463 -256 576 -188 98 -400 96 -559 -6 -74 -47
-171 -157 -209 -237 -35 -74 -47 -84 -47 -41 0 44 -35 172 -70 256 -39 93
-113 218 -185 311 -53 68 -177 205 -187 205 -2 0 -38 -35 -79 -77z m152 -55
c35 -40 68 -77 74 -83 26 -24 142 -217 172 -285 40 -92 44 -138 5 -55 -77 161
-275 405 -329 405 -26 0 -161 -145 -226 -243 -31 -46 -74 -119 -96 -163 -40
-77 -46 -62 -9 24 10 24 18 50 18 58 0 8 4 14 8 14 5 0 17 19 28 41 10 23 40
73 66 111 26 38 48 74 48 78 0 5 9 14 20 20 11 6 20 15 20 19 0 13 114 131
126 131 7 0 40 -33 75 -72z m38 -174 c121 -146 195 -283 237 -441 14 -51 19
-105 19 -215 0 -80 -2 -149 -5 -152 -3 -3 -15 -3 -25 0 -18 5 -20 14 -20 107
-1 78 -6 120 -24 177 -43 139 -127 281 -239 406 l-52 58 -41 -39 c-179 -174
-298 -444 -287 -650 3 -55 1 -60 -19 -63 -19 -3 -22 3 -29 64 -29 275 72 539
309 807 70 80 57 84 176 -59z m-888 14 c30 -14 57 -25 62 -26 4 -1 15 -10 26
-19 10 -10 34 -32 54 -49 19 -18 48 -52 64 -75 26 -41 28 -51 28 -149 0 -94
-3 -111 -27 -161 -55 -111 -132 -164 -238 -163 -114 0 -220 66 -256 160 -33
85 -2 197 66 237 34 21 100 32 100 18 0 -6 -5 -11 -11 -11 -19 0 -80 -47 -105
-81 -17 -24 -24 -46 -24 -80 0 -96 111 -189 228 -189 63 0 98 16 140 65 110
125 108 273 -5 395 -68 73 -132 100 -242 100 -168 0 -288 -77 -367 -235 -27
-54 -34 -62 -28 -35 18 98 120 237 205 281 104 53 237 60 330 17z m804 -165
c32 -36 32 -48 0 -27 -21 14 -31 15 -50 6 -30 -14 -31 -9 -7 23 22 31 26 31
57 -2z m49 -131 c109 -135 170 -273 185 -421 5 -47 8 -87 6 -89 -1 -1 -22 2
-46 7 -113 24 -332 22 -464 -5 l-31 -6 7 82 c13 154 82 306 203 450 67 80 58
81 140 -18z m1256 3 c0 -9 10 -20 23 -26 13 -6 27 -19 32 -29 6 -10 23 -38 38
-63 74 -120 87 -260 36 -384 -32 -75 -60 -111 -119 -150 -127 -85 -275 -104
-383 -48 -60 30 -134 102 -161 156 -9 17 -21 57 -27 89 -10 50 -9 67 6 114 33
105 142 186 255 189 146 4 246 -127 199 -261 -16 -46 -38 -49 -29 -4 17 95 -4
155 -71 200 -64 44 -170 18 -248 -61 -67 -67 -76 -144 -29 -244 61 -129 207
-191 353 -149 121 36 233 192 243 341 7 109 -18 185 -93 280 -42 53 -48 65
-36 65 6 0 11 -7 11 -15z m-900 -230 c13 -16 6 -65 -10 -65 -6 0 -10 4 -10 9
0 5 -3 23 -6 40 -7 33 5 41 26 16z m-232 -336 c36 -7 62 -16 62 -23 0 -22 -10
-24 -58 -10 -78 24 -263 29 -370 10 -111 -19 -102 -19 -102 -1 0 39 293 54
468 24z m-504 -35 c8 -21 -1 -34 -25 -34 -34 0 -23 45 12 49 4 1 10 -6 13 -15z
m646 6 c4 0 6 -9 3 -20 -6 -21 -12 -24 -36 -14 -9 3 -13 13 -10 25 4 13 11 18
20 15 8 -3 18 -6 23 -6z m-742 -47 c2 -15 -5 -23 -28 -32 -82 -28 -218 -151
-292 -263 -81 -122 -173 -353 -147 -369 18 -11 168 -37 259 -44 155 -14 357
29 472 100 48 30 62 34 73 25 8 -7 15 -15 15 -19 0 -12 -126 -91 -202 -126
-129 -59 -230 -79 -403 -79 -119 0 -174 5 -267 24 -74 14 -118 28 -118 36 0
24 72 219 107 288 77 155 175 275 297 365 61 46 205 122 221 117 6 -1 11 -12
13 -23z m580 5 c36 -6 62 -15 62 -23 0 -24 -40 -126 -75 -193 -20 -38 -66
-106 -102 -152 l-66 -83 -29 34 c-59 70 -119 159 -152 226 -35 69 -66 148 -66
169 0 7 33 16 83 23 45 6 93 13 107 15 36 6 164 -3 238 -16z m325 -20 c229
-119 394 -328 492 -622 19 -60 34 -110 33 -111 -2 -1 -46 -13 -98 -25 -131
-32 -359 -39 -484 -16 -132 25 -282 91 -376 165 -23 18 -24 21 -9 36 15 15 20
14 65 -14 151 -97 390 -127 631 -80 59 11 109 22 111 24 7 6 -58 186 -89 247
-81 161 -206 302 -328 367 -33 18 -61 34 -61 36 0 13 14 35 22 35 5 0 46 -19
91 -42z m-789 -45 c13 -69 101 -234 176 -327 46 -57 68 -92 62 -98 -13 -13
-137 147 -192 248 -61 109 -93 196 -78 206 22 13 26 9 32 -29z m606 13 c0 -6
-22 -57 -49 -113 -51 -105 -106 -193 -175 -278 -22 -27 -41 -52 -43 -54 -2 -3
-9 1 -15 7 -9 9 0 23 33 59 88 94 180 252 208 360 8 31 16 41 26 37 8 -4 15
-11 15 -18z m-987 -16 c-18 -17 -38 -30 -44 -30 -10 0 -10 3 -1 12 7 7 12 20
12 30 0 14 8 18 33 18 l32 0 -32 -30z m306 -55 c38 -112 140 -290 216 -374
l37 -41 -64 -29 c-113 -52 -180 -65 -323 -65 -78 1 -156 7 -195 16 -60 13 -65
16 -63 40 3 41 61 177 108 254 25 39 70 97 102 128 62 64 154 130 163 118 3
-4 12 -25 19 -47z m812 4 c81 -60 134 -121 198 -227 43 -73 109 -237 99 -248
-14 -14 -174 -34 -271 -34 -127 0 -207 16 -303 60 l-66 30 40 47 c82 100 182
277 213 381 6 23 14 42 17 42 2 0 35 -23 73 -51z m447 -173 c12 -14 22 -29 22
-33 0 -3 6 -14 14 -22 50 -56 185 -356 193 -432 4 -34 2 -38 -29 -48 -99 -31
-218 -45 -378 -45 -91 1 -175 5 -187 10 -14 6 22 9 110 10 185 1 371 39 403
82 20 25 17 45 -20 157 -43 128 -118 275 -187 366 -60 80 -28 55 59 -45z
m-1755 31 c-56 -78 -59 -83 -118 -202 -30 -60 -58 -126 -61 -145 -4 -19 -11
-44 -17 -55 -6 -11 -14 -35 -18 -53 -6 -28 -3 -38 19 -63 37 -40 176 -69 377
-78 144 -6 147 -7 82 -15 -151 -19 -493 12 -543 49 -17 12 -15 19 18 121 36
108 76 201 112 259 33 53 91 140 96 145 3 3 20 24 39 48 47 61 59 52 14 -11z
m873 -258 c10 -17 -13 -36 -27 -22 -12 12 -4 33 11 33 5 0 12 -5 16 -11z m14
-46 c0 -5 -7 -17 -15 -27 -12 -16 -17 -17 -30 -6 -21 17 -19 33 4 25 11 -3 22
-1 26 5 7 12 15 13 15 3z m-796 -65 c18 -12 -2 -20 -33 -13 -20 4 -28 11 -25
21 15 50 14 49 31 23 9 -13 21 -27 27 -31z m1576 14 c0 -14 -47 -39 -56 -29
-3 3 4 19 17 36 22 30 38 27 39 -7z m-511 -184 l24 -9 -22 -15 c-24 -17 -42
-9 -62 29 -11 20 -5 20 60 -5z m-360 -180 c45 -22 96 -83 118 -141 16 -45 16
-161 -1 -200 -41 -94 -155 -149 -247 -119 -36 12 -108 77 -97 87 3 3 22 -5 42
-19 80 -54 149 -57 205 -10 43 36 65 101 58 173 -6 76 -39 134 -96 171 -38 26
-54 30 -111 30 -131 0 -218 -57 -272 -177 -35 -77 -32 -170 10 -256 18 -37 40
-71 48 -74 8 -3 14 -11 14 -19 0 -20 101 -92 160 -115 99 -37 157 -35 299 10
61 19 18 -6 -49 -29 -92 -32 -185 -37 -268 -15 -76 20 -106 38 -175 104 -77
73 -100 127 -105 247 -5 129 11 190 70 259 95 112 272 153 397 93z"/>
<path d="M1396 2340 c-49 -58 -105 -164 -135 -256 -17 -51 -31 -98 -31 -105 0
-11 38 -14 196 -14 l195 0 -6 33 c-20 107 -113 298 -171 353 l-21 20 -27 -31z
m74 -92 c43 -67 89 -175 90 -210 l0 -28 -135 0 -135 0 0 26 c0 53 108 264 135
264 6 0 26 -24 45 -52z"/>
<path d="M1330 1703 c-25 -2 -49 -8 -53 -12 -11 -11 52 -137 106 -213 22 -32
41 -58 43 -58 1 0 19 23 39 52 47 64 118 210 108 219 -10 10 -184 18 -243 12z
m176 -76 c-7 -33 -63 -127 -76 -127 -27 0 -111 147 -88 154 31 10 41 11 104 8
l66 -4 -6 -31z"/>
<path d="M958 1533 c-30 -32 -73 -86 -97 -121 -47 -69 -105 -191 -95 -201 3
-3 61 -8 130 -10 91 -2 144 1 201 14 137 30 132 20 60 129 -35 51 -78 128 -97
170 -19 41 -38 75 -41 76 -3 0 -31 -26 -61 -57z m85 -77 c15 -29 44 -77 63
-107 19 -30 33 -61 32 -69 -5 -22 -88 -38 -205 -39 -101 -1 -103 -1 -103 22 0
46 142 247 175 247 5 0 23 -24 38 -54z"/>
<path d="M1782 1495 c-24 -50 -66 -125 -92 -166 -27 -41 -50 -77 -50 -81 0
-13 102 -38 187 -46 77 -7 249 1 261 13 7 7 -25 79 -70 154 -43 71 -126 171
-167 200 l-26 19 -43 -93z m89 2 c52 -40 167 -226 153 -248 -14 -23 -294 -4
-309 21 -3 5 18 51 46 102 86 155 80 148 110 125z"/>
</g>
</svg>
